<svg width="4097" height="4097" viewBox="0 0 4097 4097" fill="none" xmlns="http://www.w3.org/2000/svg">
<g clip-path="url(#clip0_1058_2225)">
<rect width="4096" height="4096.02" transform="translate(0.00195312 0.796875)" fill="#0B0B41"/>
<path d="M2389.5 3122.19C2389.5 3525.2 2062.8 3851.91 1659.78 3851.91C1256.77 3851.91 930.066 3525.2 930.066 3122.19C930.066 2719.18 1256.77 2392.47 1659.78 2392.47C2062.8 2392.47 2389.5 2719.18 2389.5 3122.19Z" stroke="#DD785E" stroke-width="21.5928"/>
<path d="M4609.82 -384.84C4609.82 467.229 3919.08 1157.97 3067.01 1157.97C2214.94 1157.97 1524.2 467.229 1524.2 -384.84C1524.2 -1236.91 2214.94 -1927.65 3067.01 -1927.65C3919.08 -1927.65 4609.82 -1236.91 4609.82 -384.84Z" stroke="#F2B42D" stroke-width="21.5928"/>
<path d="M1648.99 1423.22C1648.99 1611.83 1496.09 1764.72 1307.49 1764.72C1118.88 1764.72 965.986 1611.83 965.986 1423.22C965.986 1234.62 1118.88 1081.72 1307.49 1081.72C1496.09 1081.72 1648.99 1234.62 1648.99 1423.22Z" stroke="#F2B42D" stroke-width="21.5928"/>
<path d="M3922.68 3531.17C3922.68 3786.98 3715.3 3994.35 3459.5 3994.35C3203.69 3994.35 2996.32 3786.98 2996.32 3531.17C2996.32 3275.37 3203.69 3067.99 3459.5 3067.99C3715.3 3067.99 3922.68 3275.37 3922.68 3531.17Z" stroke="#48A8E2" stroke-width="21.5928"/>
<path d="M477.881 3910.17C477.881 4101 323.183 4255.7 132.353 4255.7C-58.4763 4255.7 -213.174 4101 -213.174 3910.17C-213.174 3719.34 -58.4763 3564.65 132.353 3564.65C323.183 3564.65 477.881 3719.34 477.881 3910.17Z" stroke="#D7425E" stroke-width="21.5928"/>
<path d="M1502.6 3478.52C1502.6 3833.41 1214.9 4121.11 860.01 4121.11C505.116 4121.11 217.418 3833.41 217.418 3478.52C217.418 3123.62 505.116 2835.92 860.01 2835.92C1214.9 2835.92 1502.6 3123.62 1502.6 3478.52Z" stroke="#F2B42D" stroke-width="21.5928"/>
<path d="M2622.76 2522.78C2622.76 2726.17 2457.88 2891.06 2254.49 2891.06C2051.09 2891.06 1886.21 2726.17 1886.21 2522.78C1886.21 2319.39 2051.09 2154.51 2254.49 2154.51C2457.88 2154.51 2622.76 2319.39 2622.76 2522.78Z" stroke="#D7425E" stroke-width="21.5928"/>
<path d="M713.183 174.096C713.183 567.974 393.883 887.274 0.0055542 887.274C-393.872 887.274 -713.172 567.974 -713.172 174.096C-713.172 -219.782 -393.872 -539.082 0.0055542 -539.082C393.883 -539.082 713.183 -219.782 713.183 174.096Z" stroke="#D7425E" stroke-width="21.5928"/>
<path d="M1193.13 1266.41C1193.13 1959.42 631.333 2521.22 -61.6803 2521.22C-754.694 2521.22 -1316.49 1959.42 -1316.49 1266.41C-1316.49 573.392 -754.694 11.5933 -61.6803 11.5933C631.333 11.5933 1193.13 573.392 1193.13 1266.41Z" stroke="#48A8E2" stroke-width="21.5928"/>
<path d="M3359.39 1941.43C3359.39 2761.01 2694.99 3425.41 1875.41 3425.41C1055.83 3425.41 391.435 2761.01 391.435 1941.43C391.435 1121.85 1055.83 457.453 1875.41 457.453C2694.99 457.453 3359.39 1121.85 3359.39 1941.43Z" stroke="#59ABA9" stroke-width="21.5928"/>
<path d="M4007.72 1451.83C4007.72 1923.51 3625.35 2305.89 3153.66 2305.89C2681.98 2305.89 2299.6 1923.51 2299.6 1451.83C2299.6 980.144 2681.98 597.769 3153.66 597.769C3625.35 597.769 4007.72 980.144 4007.72 1451.83Z" stroke="#DD785E" stroke-width="21.5928"/>
</g>
<defs>
<clipPath id="clip0_1058_2225">
<rect width="4096" height="4096.02" fill="white" transform="translate(0.00195312 0.796875)"/>
</clipPath>
</defs>
</svg>
